<svg width="512" height="512" viewBox="0 0 512 512" fill="none" xmlns="http://www.w3.org/2000/svg">
<g clip-path="url(#clip0_302_13)">
<rect width="512" height="512" fill="#546AD9"/>
<path d="M302.353 390.598C302.306 394.593 299.095 397.804 295.1 397.851H215.871C211.876 397.851 208.634 394.608 208.634 390.598C208.634 386.604 211.876 383.361 215.871 383.361H295.132C299.095 383.424 302.306 386.635 302.353 390.598ZM255.5 141.525C228.464 141.51 202.712 153.023 184.683 173.166C166.654 193.326 158.07 220.192 161.078 247.071C164.085 273.935 178.402 298.246 200.426 313.909C214.351 323.558 222.559 339.489 222.34 356.436V370.612H288.645L288.661 356.42C288.441 339.487 296.649 323.557 310.559 313.906C332.598 298.242 346.915 273.931 349.923 247.067C352.93 220.203 344.346 193.325 326.317 173.179C308.288 153.019 282.535 141.51 255.5 141.525ZM289.507 410.616H221.493C217.499 410.616 214.241 413.859 214.241 417.869C214.241 421.879 217.499 425.121 221.493 425.121H289.507C293.501 425.121 296.759 421.879 296.759 417.869C296.759 413.859 293.501 410.616 289.507 410.616ZM237.345 442.79C241.292 449.009 248.137 452.768 255.499 452.768C262.861 452.768 269.707 449.009 273.654 442.79L276.802 437.871L234.196 437.887L237.345 442.79ZM97.6363 179.213L127.038 196.193C129.231 197.493 131.862 197.853 134.337 197.211C136.812 196.569 138.911 194.955 140.195 192.731C141.48 190.522 141.809 187.891 141.135 185.416C140.462 182.957 138.832 180.858 136.608 179.605L107.207 162.625C102.617 159.993 96.7745 161.559 94.1275 166.133C91.4802 170.723 93.0468 176.566 97.6363 179.213ZM255.498 113C258.036 113 260.479 111.997 262.265 110.196C264.066 108.394 265.069 105.966 265.069 103.429V69.7982C265.069 64.5038 260.792 60.2119 255.498 60.2119C250.204 60.2119 245.927 64.5038 245.927 69.7982V103.429C245.927 105.966 246.93 108.394 248.731 110.196C250.517 111.997 252.96 113 255.498 113ZM379.215 197.474C380.891 197.474 382.535 197.051 383.992 196.205L413.393 179.226V179.241C417.967 176.594 419.533 170.736 416.886 166.162C414.255 161.572 408.396 160.006 403.807 162.653L374.406 179.633H374.421C370.662 181.795 368.829 186.212 369.957 190.41C371.069 194.592 374.876 197.506 379.214 197.49L379.215 197.474ZM326.88 135.728H326.864C329.073 136.997 331.689 137.342 334.132 136.684C336.592 136.026 338.691 134.413 339.959 132.219L356.845 102.99C359.477 98.4164 357.91 92.5578 353.336 89.9108C348.763 87.2635 342.904 88.83 340.257 93.4195L323.371 122.649C320.724 127.223 322.29 133.066 326.849 135.728L326.88 135.728ZM171.083 132.22C173.715 136.793 179.573 138.36 184.147 135.728C186.356 134.46 187.954 132.361 188.612 129.917C189.269 127.458 188.925 124.842 187.656 122.649L170.77 93.4196C168.139 88.8302 162.28 87.2635 157.691 89.9109C153.117 92.5581 151.551 98.4165 154.198 102.99L171.083 132.22ZM393.326 327.831L363.924 310.851C361.731 309.583 359.116 309.238 356.656 309.896C354.213 310.554 352.114 312.167 350.845 314.36C348.213 318.934 349.78 324.793 354.354 327.44L383.755 344.42C388.344 347.067 394.187 345.485 396.834 340.911C399.481 336.337 397.915 330.478 393.326 327.831ZM420.284 249.745H386.246C381.045 249.854 376.879 254.099 376.879 259.315C376.879 264.532 381.045 268.777 386.246 268.886H420.284C425.5 268.776 429.666 264.532 429.666 259.315C429.666 254.099 425.5 249.854 420.284 249.745ZM134.323 259.315C134.323 256.778 133.32 254.334 131.519 252.548C129.717 250.747 127.289 249.745 124.752 249.745H90.7138C85.4976 249.854 81.3312 254.099 81.3312 259.315C81.3312 264.531 85.498 268.776 90.7138 268.886H124.752C127.289 268.902 129.717 267.883 131.519 266.082C133.32 264.296 134.323 261.853 134.323 259.315ZM147.073 310.864L117.672 327.828C113.082 330.475 111.516 336.334 114.163 340.908C116.811 345.481 122.653 347.064 127.243 344.416L156.644 327.436C161.218 324.789 162.784 318.931 160.153 314.357C157.505 309.783 151.647 308.217 147.073 310.848V310.864Z" fill="#FBFCFC"/>
</g>
<defs>
<clipPath id="clip0_302_13">
<rect width="512" height="512" fill="white"/>
</clipPath>
</defs>
</svg>
